# xmcd
#
# Track frame offsets: 
#        150
#        24522
#        81651
#        120245
#        122014
#        139896
#        144660
#        194481
#        230004
#
# Disc length: 3095 seconds
#
# Revision: 0
# Processed by: cddbd v1.5.2PL0 Copyright (c) Steve Scherf et al.
# Submitted via: ExactAudioCopy v1.0b1
#
DISCID=810c1509
DTITLE=The Allman Brothers Band - 03-24-09 Beacon Theater (Disc2)
DYEAR=2009
DGENRE=Blues
TTITLE0=Midnight Rider
TTITLE1=Dreams
TTITLE2=Southbound
TTITLE3=Stage banter
TTITLE4=Jesus Just Left Chicago
TTITLE5=Stage banter
TTITLE6=Stormy Monday
TTITLE7=Statesboro Blues
TTITLE8=Stage banter
EXTD=
EXTT0=
EXTT1=
EXTT2=
EXTT3=
EXTT4=
EXTT5=
EXTT6=
EXTT7=
EXTT8=
PLAYORDER=
